<svg width="739" height="93" viewBox="0 0 739 93" fill="none" xmlns="http://www.w3.org/2000/svg">
<path d="M31.2401 29.704C40.0721 30.5627 47.1868 32.5867 52.5841 35.776C58.0428 38.9653 60.7721 43.8107 60.7721 50.312C60.7721 54.4827 59.5148 58.04 57.0001 60.984C54.5468 63.928 51.1735 66.1667 46.8801 67.7C42.6481 69.2333 37.8335 70 32.4361 70H11.7361C10.6935 70 9.86546 70.0307 9.25213 70.092C7.28946 70.2147 4.89746 70.276 2.07613 70.276C1.76946 70.276 1.61613 70.184 1.61613 70C1.61613 69.7547 1.76946 69.632 2.07613 69.632C4.83613 69.5707 6.76813 69.2947 7.87213 68.804C9.03746 68.252 9.83479 67.0867 10.2641 65.308C10.7548 63.468 11.0001 60.432 11.0001 56.2V25.656C7.81079 23.8773 5.23479 21.792 3.27213 19.4C1.30946 16.9467 0.328125 14.4627 0.328125 11.948C0.328125 7.9 2.07613 5.784 5.57213 5.6H28.1121C34.7361 5.6 39.8575 6.612 43.4761 8.63599C47.1561 10.66 48.9961 13.7267 48.9961 17.836C48.9961 21.0253 47.2788 23.724 43.8441 25.932C40.4708 28.0787 36.2695 29.336 31.2401 29.704ZM1.15613 11.948C1.15613 14.2787 2.04546 16.548 3.82413 18.756C5.66413 20.964 8.05613 22.9573 11.0001 24.736V17.376C11.0001 14.248 10.7855 11.8867 10.3561 10.292C9.92679 8.69733 9.31346 7.65467 8.51613 7.164C7.78013 6.612 6.79879 6.336 5.57213 6.336C2.62813 6.64266 1.15613 8.51333 1.15613 11.948ZM17.9001 6.428C17.4095 8.57466 17.1641 12.684 17.1641 18.756V27.496C19.9241 28.4773 22.8068 29.06 25.8121 29.244H25.9041C31.7921 29.244 35.9321 28.3853 38.3241 26.668C40.7161 24.8893 41.9121 22.0373 41.9121 18.112C41.9121 14.064 40.6241 11.12 38.0481 9.28C35.5335 7.37866 31.7615 6.428 26.7321 6.428H17.9001ZM31.3321 69.172C36.3615 69.172 40.5321 68.344 43.8441 66.688C47.2175 65.032 49.7015 62.824 51.2961 60.064C52.8908 57.2427 53.6881 54.176 53.6881 50.864C53.6881 43.504 51.2041 38.3213 46.2361 35.316C41.3295 32.2493 34.5215 30.5013 25.8121 30.072C23.2361 30.0107 20.3535 29.4587 17.1641 28.416V53.44C17.1641 57.7947 17.2255 61.076 17.3481 63.284C17.5321 65.492 17.8081 67.4547 18.1761 69.172H31.3321ZM74.1473 70C73.166 70 72.43 70.0307 71.9393 70.092C70.4673 70.2147 68.5967 70.276 66.3273 70.276C66.082 70.276 65.9593 70.184 65.9593 70C65.9593 69.7547 66.082 69.632 66.3273 69.632C68.658 69.632 70.314 69.356 71.2953 68.804C72.338 68.1907 72.982 67.2707 73.2273 66.044C73.534 64.8173 73.6873 62.8547 73.6873 60.156V13.512C73.6873 11.2427 73.3193 9.556 72.5833 8.452C71.8473 7.28666 70.498 6.704 68.5353 6.704C68.1673 6.704 67.4927 6.76533 66.5113 6.888C66.3273 6.94933 66.2353 6.91866 66.2353 6.796C66.2353 6.612 66.3273 6.48933 66.5113 6.428C68.29 5.81466 70.406 4.956 72.8593 3.852C75.374 2.748 77.306 1.79733 78.6553 0.999995C78.778 0.877329 78.9007 0.877329 79.0233 0.999995C79.146 1.06133 79.2073 1.184 79.2073 1.368V60.156C79.2073 62.8547 79.33 64.8173 79.5753 66.044C79.882 67.2707 80.526 68.1907 81.5073 68.804C82.55 69.356 84.2367 69.632 86.5673 69.632C86.874 69.632 87.0273 69.7547 87.0273 70C87.0273 70.184 86.874 70.276 86.5673 70.276C84.298 70.276 82.366 70.2147 80.7713 70.092C80.342 70.0307 79.6673 70 78.7473 70H74.1473ZM144.756 65.676C144.879 65.492 145.032 65.4613 145.216 65.584C145.461 65.6453 145.553 65.7987 145.492 66.044C144.511 67.7 143.499 68.9573 142.456 69.816C141.475 70.6133 140.095 71.012 138.316 71.012C134.207 71.012 131.723 68.62 130.864 63.836L127.736 46.632C127.368 50.6187 126.141 54.5133 124.056 58.316C122.032 62.0573 119.303 65.124 115.868 67.516C112.495 69.908 108.723 71.104 104.552 71.104C101.179 71.104 98.3879 70.2147 96.1799 68.436C93.9719 66.6573 92.8679 64.296 92.8679 61.352C92.8679 59.2053 93.6039 57.4267 95.0759 56.016C96.6092 54.544 98.4492 53.4093 100.596 52.612C102.743 51.7533 105.687 50.772 109.428 49.668C113.292 48.564 116.328 47.5827 118.536 46.724C120.744 45.804 122.584 44.5773 124.056 43.044C125.528 41.5107 126.172 39.5787 125.988 37.248H126.08C125.16 32.7707 123.596 29.3973 121.388 27.128C119.241 24.8587 116.849 23.724 114.212 23.724C109.551 23.724 105.595 24.8893 102.344 27.22C99.0932 29.4893 96.4252 32.4333 94.3399 36.052C92.2546 39.6707 90.3226 43.964 88.5439 48.932C88.4826 49.1773 88.2986 49.3 87.9919 49.3C87.6852 49.1773 87.6239 48.9627 87.8079 48.656C89.7706 43.2587 91.8559 38.72 94.0639 35.04C96.2719 31.36 99.0932 28.416 102.528 26.208C105.963 23.9387 110.164 22.804 115.132 22.804C119.425 22.804 123.013 23.816 125.896 25.84C128.779 27.8027 130.711 31.6973 131.692 37.524L136.384 64.204C137.059 67.8227 138.255 69.632 139.972 69.632C140.953 69.632 141.812 69.264 142.548 68.528C143.284 67.792 144.02 66.8413 144.756 65.676ZM109.428 68.252C112.556 68.252 115.469 67.0253 118.168 64.572C120.867 62.1187 123.044 58.9907 124.7 55.188C126.356 51.324 127.184 47.3987 127.184 43.412L126.54 39.916C126.111 42.308 124.761 44.148 122.492 45.436C120.284 46.724 117.095 48.0427 112.924 49.392C109.796 50.4347 107.343 51.3547 105.564 52.152C103.785 52.9493 102.283 54.0227 101.056 55.372C99.8292 56.66 99.2159 58.316 99.2159 60.34C99.2159 62.7933 100.197 64.7253 102.16 66.136C104.123 67.5467 106.545 68.252 109.428 68.252ZM194.873 48.656C194.934 48.288 195.118 48.104 195.425 48.104C195.548 48.104 195.64 48.196 195.701 48.38C195.762 48.5027 195.762 48.656 195.701 48.84C192.88 56.4453 189.445 62.0267 185.397 65.584C181.349 69.1413 176.35 70.92 170.401 70.92C166.23 70.92 162.305 69.9693 158.625 68.068C154.945 66.1053 151.97 63.376 149.701 59.88C147.493 56.3227 146.389 52.2747 146.389 47.736C146.389 42.952 147.524 38.6893 149.793 34.948C152.124 31.1453 155.19 28.2013 158.993 26.116C162.796 23.9693 166.905 22.896 171.321 22.896C175.062 22.896 178.405 23.5093 181.349 24.736C184.293 25.9627 186.961 27.864 189.353 30.44C186.716 33.2 184.722 35.8373 183.373 38.352C182.024 40.8053 181.042 42.8293 180.429 44.424C179.877 45.9573 179.509 46.9387 179.325 47.368C179.202 47.736 179.018 47.8587 178.773 47.736C178.528 47.6133 178.466 47.3987 178.589 47.092C178.773 46.6013 179.233 45.3747 179.969 43.412C180.766 41.4493 181.778 39.456 183.005 37.432C183.25 33.016 182.208 29.6427 179.877 27.312C177.546 24.92 174.602 23.724 171.045 23.724C167.672 23.724 164.544 24.552 161.661 26.208C158.84 27.8027 156.57 30.164 154.853 33.292C153.197 36.3587 152.369 40.0387 152.369 44.332C152.369 48.748 153.228 52.796 154.945 56.476C156.662 60.156 159.054 63.0693 162.121 65.216C165.188 67.3627 168.622 68.436 172.425 68.436C182.913 68.436 190.396 61.8427 194.873 48.656ZM252.4 69.632C252.645 69.632 252.768 69.7547 252.768 70C252.768 70.184 252.645 70.276 252.4 70.276C250.008 70.276 248.076 70.2147 246.604 70.092C246.113 70.0307 245.438 70 244.58 70H240.348C239.182 67.9147 238.201 65.3387 237.404 62.272C236.668 59.144 236.116 55.9853 235.748 52.796C235.686 52.3667 235.502 50.864 235.196 48.288C234.889 45.6507 234.153 43.5653 232.988 42.032C231.884 40.4987 230.35 39.732 228.388 39.732C224.646 39.732 221.273 41.4187 218.268 44.792C215.262 48.104 213.146 52.2133 211.92 57.12C211.674 59.0213 211.49 60.8613 211.368 62.64C211.429 64.5413 211.644 65.9827 212.012 66.964C212.38 67.884 213.085 68.5587 214.128 68.988C215.17 69.4173 216.704 69.632 218.728 69.632C219.034 69.632 219.188 69.7547 219.188 70C219.188 70.184 219.034 70.276 218.728 70.276C216.458 70.276 214.526 70.2147 212.932 70.092C212.502 70.0307 211.828 70 210.908 70H206.308C205.326 70 204.59 70.0307 204.1 70.092C202.628 70.2147 200.757 70.276 198.488 70.276C198.242 70.276 198.12 70.184 198.12 70C198.12 69.7547 198.242 69.632 198.488 69.632C200.818 69.632 202.474 69.356 203.456 68.804C204.498 68.1907 205.142 67.2707 205.388 66.044C205.694 64.8173 205.848 62.8547 205.848 60.156V13.144C205.848 10.8747 205.48 9.15733 204.744 7.992C204.008 6.82666 202.658 6.244 200.696 6.244C200.328 6.244 199.653 6.30533 198.672 6.428C198.488 6.48933 198.396 6.45866 198.396 6.336C198.396 6.152 198.488 6.02933 198.672 5.968C200.389 5.416 202.505 4.588 205.02 3.484C207.534 2.38 209.466 1.42933 210.816 0.631999C210.938 0.509331 211.061 0.478662 211.184 0.539995C211.306 0.601331 211.368 0.723998 211.368 0.907996V13.144L211.276 39.456L209.804 64.48H210.264C210.693 58.408 211.889 52.2747 213.852 46.08C215.814 39.824 218.85 34.488 222.96 30.072C227.069 25.5947 232.313 23.356 238.692 23.356C240.532 23.356 242.31 23.7853 244.028 24.644C245.745 25.5027 247.156 26.6987 248.26 28.232C245.561 31.4213 243.445 34.764 241.912 38.26C241.85 38.628 241.666 38.812 241.36 38.812C241.237 38.812 241.145 38.7507 241.084 38.628C241.022 38.444 241.022 38.26 241.084 38.076C241.881 35.9907 242.954 34.028 244.304 32.188C243.199 30.164 241.82 28.6 240.164 27.496C238.508 26.392 236.79 25.84 235.012 25.84C229.553 25.84 224.922 28.3547 221.12 33.384C217.378 38.4133 214.68 44.4853 213.024 51.6C214.925 47.2453 217.47 43.9333 220.66 41.664C223.849 39.3333 227.161 38.168 230.596 38.168C232.742 38.168 234.429 38.72 235.656 39.824C236.944 40.8667 237.925 42.2773 238.6 44.056C239.274 45.8347 239.98 48.3187 240.716 51.508C241.145 53.2253 241.513 54.8507 241.82 56.384C242.74 59.9413 243.629 62.64 244.488 64.48C245.346 66.2587 246.358 67.5467 247.524 68.344C248.75 69.1413 250.376 69.5707 252.4 69.632ZM352.003 69.632C352.31 69.632 352.463 69.7547 352.463 70C352.463 70.184 352.31 70.276 352.003 70.276C349.182 70.276 346.79 70.2147 344.827 70.092C344.214 70.0307 343.386 70 342.343 70H337.743C336.639 70 335.78 70.0307 335.167 70.092C333.204 70.2147 330.812 70.276 327.991 70.276C327.684 70.276 327.531 70.184 327.531 70C327.531 69.7547 327.684 69.632 327.991 69.632C330.751 69.5707 332.714 69.2947 333.879 68.804C335.044 68.252 335.842 67.0867 336.271 65.308C336.762 63.468 337.007 60.432 337.007 56.2V43.688C336.394 41.6027 334.584 40.2227 331.579 39.548C328.635 38.812 324.679 38.444 319.711 38.444H315.755C310.664 38.5667 306.432 38.168 303.059 37.248C299.747 36.328 297.508 34.396 296.343 31.452V56.2C296.343 60.432 296.558 63.468 296.987 65.308C297.478 67.0867 298.275 68.252 299.379 68.804C300.544 69.2947 302.507 69.5707 305.267 69.632C305.574 69.632 305.727 69.7547 305.727 70C305.727 70.184 305.574 70.276 305.267 70.276C302.446 70.276 300.054 70.2147 298.091 70.092C297.478 70.0307 296.65 70 295.607 70H291.007C289.903 70 289.044 70.0307 288.431 70.092C286.468 70.2147 284.076 70.276 281.255 70.276C280.948 70.276 280.795 70.184 280.795 70C280.795 69.7547 280.948 69.632 281.255 69.632C284.015 69.5707 285.978 69.2947 287.143 68.804C288.308 68.252 289.106 67.0867 289.535 65.308C290.026 63.468 290.271 60.432 290.271 56.2V19.308C290.271 15.076 290.026 12.0707 289.535 10.292C289.106 8.452 288.308 7.28666 287.143 6.796C285.978 6.244 284.015 5.968 281.255 5.968C280.948 5.968 280.795 5.876 280.795 5.69199C280.795 5.44666 280.948 5.324 281.255 5.324C284.076 5.324 286.468 5.38533 288.431 5.508C289.044 5.56933 289.903 5.6 291.007 5.6H295.607C296.65 5.6 297.478 5.56933 298.091 5.508C300.054 5.38533 302.446 5.324 305.267 5.324C305.574 5.324 305.727 5.44666 305.727 5.69199C305.727 5.876 305.574 5.968 305.267 5.968C302.507 5.968 300.544 6.244 299.379 6.796C298.275 7.28666 297.478 8.452 296.987 10.292C296.558 12.0707 296.343 15.076 296.343 19.308V28.324C296.772 32.188 298.704 34.7333 302.139 35.96C305.574 37.1867 310.112 37.7387 315.755 37.616L319.987 37.524C324.464 37.524 328.144 37.8307 331.027 38.444C333.91 39.0573 335.903 40.192 337.007 41.848V19.308C337.007 15.076 336.762 12.0707 336.271 10.292C335.842 8.452 335.044 7.28666 333.879 6.796C332.714 6.244 330.751 5.968 327.991 5.968C327.684 5.968 327.531 5.876 327.531 5.69199C327.531 5.44666 327.684 5.324 327.991 5.324C330.812 5.324 333.204 5.38533 335.167 5.508C335.78 5.56933 336.639 5.6 337.743 5.6H342.343C343.386 5.6 344.214 5.56933 344.827 5.508C346.79 5.38533 349.182 5.324 352.003 5.324C352.31 5.324 352.463 5.44666 352.463 5.69199C352.463 5.876 352.31 5.968 352.003 5.968C349.243 5.968 347.28 6.244 346.115 6.796C345.011 7.28666 344.214 8.452 343.723 10.292C343.294 12.0707 343.079 15.076 343.079 19.308V56.2C343.079 60.432 343.294 63.468 343.723 65.308C344.214 67.0867 345.011 68.252 346.115 68.804C347.28 69.2947 349.243 69.5707 352.003 69.632ZM410.963 65.676C411.086 65.492 411.239 65.4613 411.423 65.584C411.668 65.6453 411.76 65.7987 411.699 66.044C410.718 67.7 409.706 68.9573 408.663 69.816C407.682 70.6133 406.302 71.012 404.523 71.012C400.414 71.012 397.93 68.62 397.071 63.836L393.943 46.632C393.575 50.6187 392.348 54.5133 390.263 58.316C388.239 62.0573 385.51 65.124 382.075 67.516C378.702 69.908 374.93 71.104 370.759 71.104C367.386 71.104 364.595 70.2147 362.387 68.436C360.179 66.6573 359.075 64.296 359.075 61.352C359.075 59.2053 359.811 57.4267 361.283 56.016C362.816 54.544 364.656 53.4093 366.803 52.612C368.95 51.7533 371.894 50.772 375.635 49.668C379.499 48.564 382.535 47.5827 384.743 46.724C386.951 45.804 388.791 44.5773 390.263 43.044C391.735 41.5107 392.379 39.5787 392.195 37.248H392.287C391.367 32.7707 389.803 29.3973 387.595 27.128C385.448 24.8587 383.056 23.724 380.419 23.724C375.758 23.724 371.802 24.8893 368.551 27.22C365.3 29.4893 362.632 32.4333 360.547 36.052C358.462 39.6707 356.53 43.964 354.751 48.932C354.69 49.1773 354.506 49.3 354.199 49.3C353.892 49.1773 353.831 48.9627 354.015 48.656C355.978 43.2587 358.063 38.72 360.271 35.04C362.479 31.36 365.3 28.416 368.735 26.208C372.17 23.9387 376.371 22.804 381.339 22.804C385.632 22.804 389.22 23.816 392.103 25.84C394.986 27.8027 396.918 31.6973 397.899 37.524L402.591 64.204C403.266 67.8227 404.462 69.632 406.179 69.632C407.16 69.632 408.019 69.264 408.755 68.528C409.491 67.792 410.227 66.8413 410.963 65.676ZM375.635 68.252C378.763 68.252 381.676 67.0253 384.375 64.572C387.074 62.1187 389.251 58.9907 390.907 55.188C392.563 51.324 393.391 47.3987 393.391 43.412L392.747 39.916C392.318 42.308 390.968 44.148 388.699 45.436C386.491 46.724 383.302 48.0427 379.131 49.392C376.003 50.4347 373.55 51.3547 371.771 52.152C369.992 52.9493 368.49 54.0227 367.263 55.372C366.036 56.66 365.423 58.316 365.423 60.34C365.423 62.7933 366.404 64.7253 368.367 66.136C370.33 67.5467 372.752 68.252 375.635 68.252ZM432.468 69.54C432.775 69.54 432.928 69.6627 432.928 69.908C432.928 70.092 432.775 70.184 432.468 70.184C430.137 70.2453 428.205 70.2147 426.672 70.092C426.243 70.0307 425.568 70 424.648 70H419.956C419.036 70 418.361 70.0307 417.932 70.092C416.337 70.2147 414.405 70.276 412.136 70.276C411.891 70.276 411.768 70.184 411.768 70C411.768 69.7547 411.891 69.632 412.136 69.632C414.467 69.632 416.123 69.356 417.104 68.804C418.147 68.1907 418.791 67.2707 419.036 66.044C419.343 64.8173 419.496 62.8547 419.496 60.156V41.664C419.496 38.8427 420.079 36.0213 421.244 33.2C422.471 30.3787 424.587 27.864 427.592 25.656C424.219 27.128 421.275 28.8147 418.76 30.716C416.245 32.6173 414.221 34.4573 412.688 36.236C412.627 36.42 412.473 36.512 412.228 36.512C412.044 36.512 411.921 36.42 411.86 36.236C411.799 36.052 411.86 35.868 412.044 35.684C414.068 33.2307 416.828 30.8693 420.324 28.6C423.82 26.3307 427.623 24.552 431.732 23.264C431.793 23.2027 431.916 23.172 432.1 23.172C432.284 23.172 432.376 23.264 432.376 23.448C432.437 23.632 432.407 23.7853 432.284 23.908C429.401 25.8707 427.439 28.3853 426.396 31.452C425.415 34.5187 424.924 38.168 424.924 42.4L425.016 60.156C425.077 62.916 425.231 64.9093 425.476 66.136C425.783 67.3013 426.427 68.16 427.408 68.712C428.451 69.264 430.137 69.54 432.468 69.54ZM424.004 14.524C422.9 14.524 421.949 14.156 421.152 13.42C420.416 12.6227 420.048 11.672 420.048 10.568C420.048 9.464 420.416 8.51333 421.152 7.716C421.949 6.91866 422.9 6.51999 424.004 6.51999C425.108 6.51999 426.059 6.91866 426.856 7.716C427.653 8.452 428.052 9.40266 428.052 10.568C428.052 11.672 427.684 12.6227 426.948 13.42C426.212 14.156 425.231 14.524 424.004 14.524ZM473.074 23.08C474.852 23.08 476.631 23.6627 478.41 24.828C480.188 25.9933 481.691 27.6493 482.918 29.796C479.606 33.1693 477.214 36.3893 475.742 39.456C474.331 42.5227 473.135 45.62 472.154 48.748C471.97 49.116 471.786 49.3 471.602 49.3C471.479 49.3 471.356 49.2387 471.234 49.116C471.172 48.932 471.172 48.7787 471.234 48.656C472.031 46.264 472.798 44.1787 473.534 42.4C474.27 40.56 475.312 38.5667 476.662 36.42C476.6 32.924 475.987 30.1333 474.822 28.048C473.656 25.9627 472.276 24.92 470.682 24.92C468.044 24.92 465.254 26.8213 462.31 30.624C459.366 34.3653 456.79 39.2107 454.582 45.16C452.435 51.1093 451.086 57.1813 450.534 63.376C450.656 64.9707 450.963 66.228 451.454 67.148C452.006 68.0067 452.926 68.62 454.214 68.988C455.502 69.356 457.434 69.5707 460.01 69.632C460.316 69.632 460.47 69.7547 460.47 70C460.47 70.184 460.316 70.276 460.01 70.276C457.004 70.276 454.52 70.2147 452.558 70.092C451.883 70.0307 450.963 70 449.798 70H445.382C444.4 70 443.664 70.0307 443.174 70.092C441.702 70.2147 439.831 70.276 437.562 70.276C437.316 70.276 437.194 70.184 437.194 70C437.194 69.7547 437.316 69.632 437.562 69.632C439.892 69.632 441.548 69.356 442.53 68.804C443.572 68.1907 444.216 67.2707 444.462 66.044C444.768 64.8173 444.922 62.8547 444.922 60.156V41.204L444.83 38.444C444.768 34.764 444.308 32.0347 443.45 30.256C442.652 28.4773 441.058 27.588 438.666 27.588C438.543 27.5267 438.482 27.4347 438.482 27.312C438.482 27.128 438.543 27.0053 438.666 26.944C442.959 26.1467 446.7 24.828 449.89 22.988C450.074 22.804 450.258 22.804 450.442 22.988L450.35 39.732L448.97 64.48H449.522C450.135 57.4267 451.607 50.7107 453.938 44.332C456.33 37.9533 459.212 32.832 462.586 28.968C466.02 25.0427 469.516 23.08 473.074 23.08ZM510.5 44.792C514.487 46.264 517.615 48.104 519.884 50.312C522.154 52.4587 523.288 55.1573 523.288 58.408C523.288 62.2107 521.479 65.2467 517.86 67.516C514.303 69.724 509.948 70.828 504.796 70.828C500.564 70.828 496.578 69.9693 492.836 68.252C489.156 66.4733 486.703 64.4187 485.476 62.088C487.746 59.2667 489.31 57.1507 490.168 55.74C491.088 54.3293 492.223 52.1827 493.572 49.3C493.756 48.9933 493.94 48.84 494.124 48.84C494.247 48.84 494.339 48.932 494.4 49.116C494.462 49.2387 494.462 49.392 494.4 49.576C492.744 52.9493 491.487 55.3413 490.628 56.752C491.18 60.8 492.591 64.02 494.86 66.412C497.191 68.804 500.472 70 504.704 70C508.139 70.1227 511.206 69.3867 513.904 67.792C516.664 66.1973 518.044 63.928 518.044 60.984C518.044 58.6533 517.339 56.5987 515.928 54.82C514.518 53.0413 512.555 51.6307 510.04 50.588C507.894 49.7293 505.808 48.9627 503.784 48.288C503.232 48.104 502.496 47.8587 501.576 47.552C500.718 47.2453 499.706 46.8467 498.54 46.356C495.351 44.9453 492.898 43.2893 491.18 41.388C489.524 39.4253 488.696 36.972 488.696 34.028C488.696 31.7587 489.524 29.796 491.18 28.14C492.836 26.4227 494.891 25.1347 497.344 24.276C499.798 23.356 502.128 22.896 504.336 22.896C508.016 22.896 511.574 23.632 515.008 25.104C518.504 26.576 521.05 28.508 522.644 30.9C519.332 34.2733 516.664 38.2907 514.64 42.952C514.579 43.136 514.456 43.228 514.272 43.228C514.088 43.228 513.966 43.1667 513.904 43.044C513.843 42.86 513.874 42.676 513.996 42.492C514.978 40.3453 515.898 38.5667 516.756 37.156C516.818 36.7267 516.848 36.0827 516.848 35.224C516.848 31.8507 515.622 29.0907 513.168 26.944C510.776 24.7973 507.771 23.724 504.152 23.724C501.208 23.724 498.694 24.552 496.608 26.208C494.523 27.8027 493.48 29.8573 493.48 32.372C493.48 36.1747 495.78 39.0573 500.38 41.02C501.791 41.6333 504.091 42.492 507.28 43.596L510.5 44.792ZM570.508 48.656C570.631 48.3493 570.815 48.2573 571.06 48.38C571.367 48.4413 571.459 48.6253 571.336 48.932C568.883 56.0467 566.062 61.5053 562.872 65.308C559.744 69.0493 555.512 70.92 550.176 70.92C545.515 70.92 541.866 69.5093 539.228 66.688C536.591 63.8053 535.272 60.0333 535.272 55.372V24.552H528.372C528.127 24.552 528.004 24.4293 528.004 24.184C528.004 23.9387 528.127 23.7853 528.372 23.724C531.868 22.4973 534.598 20.7187 536.56 18.388C538.584 15.996 539.872 12.776 540.424 8.728C540.486 8.544 540.578 8.48266 540.7 8.544C540.884 8.544 540.976 8.60533 540.976 8.728V23.724H562.78C563.087 23.724 563.24 23.8773 563.24 24.184C563.302 24.4293 563.148 24.552 562.78 24.552H540.884V53.256C540.884 57.9787 541.682 61.904 543.276 65.032C544.932 68.0987 547.631 69.632 551.372 69.632C556.034 69.632 559.806 67.8533 562.688 64.296C565.571 60.6773 568.178 55.464 570.508 48.656ZM593.094 71.196C588.801 71.196 584.876 70.184 581.318 68.16C577.822 66.136 575.062 63.4067 573.038 59.972C571.014 56.476 570.002 52.612 570.002 48.38C570.002 43.596 571.168 39.2413 573.498 35.316C575.829 31.3907 578.957 28.2933 582.882 26.024C586.869 23.7547 591.254 22.62 596.038 22.62C600.393 22.62 604.318 23.6627 607.814 25.748C611.31 27.772 614.04 30.532 616.002 34.028C617.965 37.524 618.946 41.388 618.946 45.62C618.946 50.4653 617.812 54.8507 615.542 58.776C613.334 62.64 610.268 65.676 606.342 67.884C602.417 70.092 598.001 71.196 593.094 71.196ZM598.062 69.08C601.19 69.08 603.981 68.3133 606.434 66.78C608.949 65.1853 610.912 63.0387 612.322 60.34C613.733 57.6413 614.438 54.6667 614.438 51.416C614.438 47.2453 613.396 43.1053 611.31 38.996C609.225 34.8867 606.373 31.544 602.754 28.968C599.197 26.3307 595.272 25.012 590.978 25.012C587.85 25.012 585.029 25.8093 582.514 27.404C580 28.9987 578.037 31.1453 576.626 33.844C575.277 36.5427 574.602 39.548 574.602 42.86C574.602 47.092 575.706 51.2627 577.914 55.372C580.122 59.42 583.005 62.732 586.562 65.308C590.181 67.8227 594.014 69.08 598.062 69.08ZM658.601 23.08C660.38 23.08 662.158 23.6627 663.937 24.828C665.716 25.9933 667.218 27.6493 668.445 29.796C665.133 33.1693 662.741 36.3893 661.269 39.456C659.858 42.5227 658.662 45.62 657.681 48.748C657.497 49.116 657.313 49.3 657.129 49.3C657.006 49.3 656.884 49.2387 656.761 49.116C656.7 48.932 656.7 48.7787 656.761 48.656C657.558 46.264 658.325 44.1787 659.061 42.4C659.797 40.56 660.84 38.5667 662.189 36.42C662.128 32.924 661.514 30.1333 660.349 28.048C659.184 25.9627 657.804 24.92 656.209 24.92C653.572 24.92 650.781 26.8213 647.837 30.624C644.893 34.3653 642.317 39.2107 640.109 45.16C637.962 51.1093 636.613 57.1813 636.061 63.376C636.184 64.9707 636.49 66.228 636.981 67.148C637.533 68.0067 638.453 68.62 639.741 68.988C641.029 69.356 642.961 69.5707 645.537 69.632C645.844 69.632 645.997 69.7547 645.997 70C645.997 70.184 645.844 70.276 645.537 70.276C642.532 70.276 640.048 70.2147 638.085 70.092C637.41 70.0307 636.49 70 635.325 70H630.909C629.928 70 629.192 70.0307 628.701 70.092C627.229 70.2147 625.358 70.276 623.089 70.276C622.844 70.276 622.721 70.184 622.721 70C622.721 69.7547 622.844 69.632 623.089 69.632C625.42 69.632 627.076 69.356 628.057 68.804C629.1 68.1907 629.744 67.2707 629.989 66.044C630.296 64.8173 630.449 62.8547 630.449 60.156V41.204L630.357 38.444C630.296 34.764 629.836 32.0347 628.977 30.256C628.18 28.4773 626.585 27.588 624.193 27.588C624.07 27.5267 624.009 27.4347 624.009 27.312C624.009 27.128 624.07 27.0053 624.193 26.944C628.486 26.1467 632.228 24.828 635.417 22.988C635.601 22.804 635.785 22.804 635.969 22.988L635.877 39.732L634.497 64.48H635.049C635.662 57.4267 637.134 50.7107 639.465 44.332C641.857 37.9533 644.74 32.832 648.113 28.968C651.548 25.0427 655.044 23.08 658.601 23.08ZM724.272 23.632C724.578 23.632 724.732 23.7547 724.732 24C724.732 24.184 724.578 24.276 724.272 24.276H720.408C711.637 24.276 706.976 24.644 706.424 25.38C706.24 25.6253 706.24 25.9013 706.424 26.208C706.669 26.4533 707.068 26.8213 707.62 27.312C709.153 28.6 710.38 30.0413 711.3 31.636C712.281 33.1693 712.772 35.2853 712.772 37.984C712.772 41.48 711.698 45.2213 709.552 49.208C707.405 53.1333 704.246 58.132 700.076 64.204C699.708 64.756 699.37 65.2467 699.064 65.676C698.757 66.1053 698.512 66.4733 698.328 66.78L695.568 70.92C691.458 77.4827 687.594 82.696 683.976 86.56C680.418 90.424 677.014 92.356 673.764 92.356C672.046 92.356 670.329 91.8347 668.612 90.792C666.956 89.8107 665.76 88.308 665.024 86.284C667.906 83.524 670.084 80.9787 671.556 78.648C673.028 76.3787 674.561 73.7107 676.156 70.644C676.217 70.3373 676.37 70.184 676.616 70.184C676.738 70.184 676.83 70.2453 676.892 70.368C677.014 70.552 677.045 70.7053 676.984 70.828C675.328 74.3853 673.334 77.6973 671.004 80.764C670.942 81.132 670.912 81.6533 670.912 82.328C670.912 84.536 671.464 86.4067 672.568 87.94C673.733 89.5347 674.96 90.332 676.248 90.332C678.394 90.332 681.062 88.584 684.252 85.088C687.502 81.592 690.968 76.8693 694.648 70.92H694.004L679.284 36.88C677.812 33.5067 676.554 30.9613 675.512 29.244C674.469 27.4653 673.334 26.208 672.108 25.472C670.942 24.6747 669.501 24.276 667.784 24.276C667.538 24.276 667.416 24.184 667.416 24C667.416 23.7547 667.538 23.632 667.784 23.632C669.501 23.632 670.912 23.6933 672.016 23.816C673.12 23.8773 673.978 23.908 674.592 23.908H679.284C680.388 23.908 681.246 23.8773 681.86 23.816C683.945 23.6933 686.368 23.632 689.128 23.632C689.434 23.632 689.588 23.7547 689.588 24C689.588 24.184 689.434 24.276 689.128 24.276C686.858 24.276 685.202 24.5827 684.16 25.196C683.117 25.8093 682.596 26.852 682.596 28.324C682.596 30.1027 683.485 32.9547 685.264 36.88L697.96 65.86L699.34 63.836C703.265 58.3773 706.332 53.5933 708.54 49.484C710.809 45.3133 711.944 41.4187 711.944 37.8C711.944 34.304 710.87 31.5747 708.724 29.612C706.638 27.588 704.154 26.208 701.272 25.472C698.45 24.6747 695.752 24.276 693.176 24.276C692.869 24.276 692.685 24.184 692.624 24C692.624 23.7547 692.777 23.632 693.084 23.632C696.764 23.632 699.125 23.6627 700.168 23.724H703.112H704.4L724.272 23.632ZM734.435 71.012C733.208 71.012 732.135 70.5827 731.215 69.724C730.356 68.804 729.927 67.7307 729.927 66.504C729.927 65.216 730.356 64.1733 731.215 63.376C732.074 62.5173 733.147 62.088 734.435 62.088C735.662 62.088 736.704 62.5173 737.563 63.376C738.483 64.2347 738.943 65.2773 738.943 66.504C738.943 67.7307 738.514 68.804 737.655 69.724C736.796 70.5827 735.723 71.012 734.435 71.012Z" fill="#948787"/>
</svg>
