<svg width="24" height="24" viewBox="0 0 24 24" fill="none" xmlns="http://www.w3.org/2000/svg">
<path d="M23.25 12C23.25 5.57812 18.0469 0.375 11.625 0.375C5.20312 0.375 0 5.57812 0 12C0 16.9688 3.04688 21.1406 7.35938 22.8281C7.26562 21.9375 7.17188 20.5312 7.40625 19.5C7.64062 18.6094 8.76562 13.7344 8.76562 13.7344C8.76562 13.7344 8.4375 13.0312 8.4375 12C8.4375 10.4062 9.375 9.1875 10.5469 9.1875C11.5312 9.1875 12 9.9375 12 10.8281C12 11.8125 11.3438 13.3125 11.0156 14.7188C10.7812 15.8438 11.625 16.7812 12.75 16.7812C14.8125 16.7812 16.4062 14.625 16.4062 11.4844C16.4062 8.67188 14.3906 6.75 11.5781 6.75C8.25 6.75 6.32812 9.23438 6.32812 11.7656C6.32812 12.7969 6.70312 13.875 7.17188 14.4375C7.26562 14.5312 7.26562 14.6719 7.26562 14.7656C7.17188 15.1406 6.9375 15.9375 6.9375 16.0781C6.89062 16.3125 6.75 16.3594 6.51562 16.2656C5.0625 15.5625 4.17188 13.4531 4.17188 11.7188C4.17188 8.0625 6.84375 4.6875 11.8594 4.6875C15.8906 4.6875 19.0312 7.59375 19.0312 11.4375C19.0312 15.4219 16.5 18.6562 12.9844 18.6562C11.8125 18.6562 10.6875 18.0469 10.3125 17.2969C10.3125 17.2969 9.75 19.5469 9.60938 20.0625C9.32812 21.0938 8.625 22.3594 8.15625 23.1094C9.23438 23.4844 10.4062 23.625 11.625 23.625C18.0469 23.625 23.25 18.4219 23.25 12Z" fill="#948787"/>
</svg>
